<svg version="1.1" id="Layer_1" xmlns="http://www.w3.org/2000/svg" xmlns:xlink="http://www.w3.org/1999/xlink" x="0px" y="0px"
	 viewBox="0 0 800 400" enable-background="new 0 0 800 400" xml:space="preserve">
<g>
	<path fill="#FCC631" d="M478.6,120l40.6-40.7c-20.7-20.4-46.5-35.5-75.4-43.2l-14.7,55.2C448.1,96.5,465.1,106.5,478.6,120z"/>
	<path fill="#8EBA3F" d="M370.8,91l-14.6-55c-29,7.7-55,22.9-75.8,43.4l40.1,40.2C334.2,106.1,351.5,96,370.8,91z"/>
	<path fill="#EF8E2D" d="M508,170.4l55.9-15.1c-7.9-28.9-23.3-54.8-43.9-75.4l-40.6,40.7C492.8,134.3,502.8,151.4,508,170.4z"/>
	<path fill="#E9632B" d="M511.9,199.8c0,9.8-1.3,19.3-3.6,28.4l56.2,15c3.6-13.7,5.5-28.1,5.5-42.9c0-15.2-2-30-5.8-44l-55.9,15.1
		C510.6,180.5,511.9,190,511.9,199.8z"/>
	<path fill="#F3E332" d="M399.4,87.3c10,0,19.6,1.3,28.8,3.7l14.7-55.2c-13.7-3.6-28.2-5.5-43-5.5c-14.8,0-29.1,1.9-42.7,5.4
		l14.6,55C380.6,88.5,389.8,87.3,399.4,87.3z"/>
	<path fill="#2F73AF" d="M291,230l-55.2,14.9c7.8,28.8,23,54.6,43.4,75.2l40.6-40.7C306.3,265.8,296.2,248.9,291,230z"/>
	<path fill="#C21B7D" d="M429.7,308.2l15,56.2c28.8-7.8,54.5-23,75.1-43.5l-41.1-41.2C465.2,293,448.4,302.9,429.7,308.2z"/>
	<path fill="#6D3D8A" d="M399.4,312.3c-9.7,0-19.2-1.2-28.2-3.6l-14.9,55.9c13.9,3.7,28.5,5.6,43.6,5.6c15.1,0,29.8-2,43.8-5.7
		l-15-56.2C419.3,311,409.5,312.3,399.4,312.3z"/>
	<path fill="#1A97BA" d="M286.9,199.8c0-9.9,1.3-19.5,3.7-28.7l-55-14.7c-3.7,14-5.7,28.7-5.7,43.9c0,15.1,2,29.7,5.7,43.6
		l55.2-14.9C288.2,219.7,286.9,209.9,286.9,199.8z"/>
	<path fill="#455198" d="M320.5,280l-40.6,40.7c20.6,20.6,46.5,35.8,75.5,43.7l14.9-55.9C351.2,303.4,334.1,293.4,320.5,280z"/>
	<path fill="#128E5D" d="M319.7,120.3l-40.1-40.2c-20.6,20.6-35.9,46.4-43.8,75.4l55,14.7C296,151,306.2,133.9,319.7,120.3z"/>
	<path fill="#E0282B" d="M479.3,278.9l41.1,41.2c20.7-20.8,36-46.9,43.7-76l-56.2-15C502.8,248.2,492.8,265.3,479.3,278.9z"/>
	<path fill="#FFFFFF" d="M280.4,79.4L280.4,79.4l-0.7,0.7l0,0C279.9,79.9,280.1,79.6,280.4,79.4z"/>
	<path fill="#FFFFFF" d="M519.7,320.9L519.7,320.9l0.8-0.7l0,0C520.2,320.4,519.9,320.6,519.7,320.9z"/>
	<path fill="#FFFFFF" d="M279.2,320L279.2,320l0.7,0.7l0,0C279.6,320.5,279.4,320.3,279.2,320z"/>
	<path fill="#FFFFFF" d="M520,79.9l-0.7-0.7l-0.1,0.1C519.5,79.5,519.7,79.7,520,79.9L520,79.9z"/>
	<path fill="#FFFFFF" d="M357.1,35.7l-1,0.3l0,0C356.5,35.9,356.8,35.8,357.1,35.7L357.1,35.7z"/>
	<path fill="#FFFFFF" d="M443.7,364.6l1-0.3l0,0C444.3,364.4,444,364.5,443.7,364.6L443.7,364.6z"/>
	<path fill="#FFFFFF" d="M235.5,243.9l0.3,1l0,0C235.7,244.6,235.6,244.2,235.5,243.9L235.5,243.9z"/>
	<path fill="#FFFFFF" d="M564.1,156.3l-0.3-1l-0.1,0C563.9,155.7,564,156,564.1,156.3L564.1,156.3z"/>
	<path fill="#FFFFFF" d="M564.1,244.2L564.1,244.2l0.3-1l0,0C564.3,243.5,564.2,243.8,564.1,244.2z"/>
	<path fill="#FFFFFF" d="M235.8,155.5l-0.3,1l0,0C235.7,156.1,235.8,155.8,235.8,155.5L235.8,155.5z"/>
	<path fill="#FFFFFF" d="M355.3,364.4l1,0.3l0,0C356,364.6,355.7,364.5,355.3,364.4L355.3,364.4z"/>
	<path fill="#FFFFFF" d="M443.9,36l-1-0.3l0,0.1C443.2,35.9,443.5,36,443.9,36L443.9,36z"/>
</g>
</svg>
